<svg width="512" height="110" viewBox="0 0 512 110" fill="none" xmlns="http://www.w3.org/2000/svg">
<g clip-path="url(#clip0_531_1117)">
<path d="M512 49.449V40.444H500.818V26.446L500.442 26.561L489.939 29.775L489.733 29.838V40.444H473.156V34.536C473.156 31.785 473.771 29.679 474.984 28.276C476.188 26.888 477.91 26.183 480.106 26.183C481.686 26.183 483.32 26.555 484.966 27.288L485.378 27.472V17.99L485.184 17.92C483.649 17.367 481.561 17.09 478.974 17.09C475.712 17.09 472.749 17.799 470.164 19.206C467.617 20.5758 465.518 22.6506 464.119 25.182C462.699 27.736 461.979 30.685 461.979 33.949V40.445H454.193V49.45H461.979V87.383H473.156V49.449H489.733V73.555C489.733 83.483 494.415 88.515 503.651 88.515C505.247 88.5057 506.838 88.3287 508.397 87.987C510.057 87.63 511.187 87.273 511.853 86.892L512 86.805V77.717L511.546 78.018C510.939 78.423 510.184 78.753 509.298 78.998C508.408 79.248 507.665 79.374 507.09 79.374C504.926 79.374 503.326 78.791 502.332 77.64C501.328 76.48 500.818 74.449 500.818 71.609V49.449H512ZM429.232 79.375C425.175 79.375 421.977 78.029 419.722 75.38C417.455 72.716 416.305 68.92 416.305 64.095C416.305 59.118 417.455 55.223 419.724 52.512C421.979 49.82 425.147 48.453 429.141 48.453C433.016 48.453 436.101 49.758 438.311 52.335C440.532 54.924 441.659 58.788 441.659 63.823C441.659 68.92 440.599 72.836 438.509 75.455C436.434 78.055 433.313 79.375 429.232 79.375ZM429.73 39.313C421.99 39.313 415.842 41.581 411.46 46.054C407.079 50.528 404.858 56.718 404.858 64.456C404.858 71.805 407.026 77.716 411.302 82.023C415.578 86.331 421.398 88.513 428.597 88.513C436.1 88.513 442.125 86.214 446.507 81.679C450.887 77.149 453.107 71.017 453.107 63.459C453.107 55.996 451.024 50.041 446.915 45.763C442.803 41.483 437.02 39.313 429.73 39.313ZM386.836 39.313C381.571 39.313 377.216 40.66 373.889 43.315C370.543 45.986 368.845 49.49 368.845 53.729C368.845 55.932 369.211 57.889 369.933 59.549C370.658 61.215 371.781 62.681 373.273 63.912C374.753 65.133 377.038 66.412 380.067 67.712C382.612 68.76 384.511 69.647 385.717 70.345C386.896 71.03 387.733 71.718 388.205 72.388C388.664 73.043 388.897 73.941 388.897 75.048C388.897 78.202 386.536 79.736 381.677 79.736C379.874 79.736 377.818 79.36 375.566 78.618C373.33 77.8869 371.22 76.8168 369.309 75.445L368.845 75.113V85.873L369.015 85.953C370.597 86.683 372.591 87.298 374.941 87.783C377.287 88.267 379.417 88.514 381.269 88.514C386.982 88.514 391.583 87.161 394.939 84.49C398.319 81.8 400.031 78.215 400.031 73.828C400.031 70.665 399.109 67.951 397.291 65.763C395.488 63.593 392.356 61.6 387.988 59.839C384.508 58.442 382.278 57.283 381.359 56.393C380.472 55.533 380.022 54.317 380.022 52.778C380.022 51.412 380.578 50.319 381.719 49.433C382.869 48.543 384.469 48.09 386.475 48.09C388.338 48.09 390.243 48.384 392.138 48.96C394.032 49.537 395.694 50.31 397.083 51.254L397.539 51.566V41.358L397.364 41.283C396.084 40.733 394.394 40.263 392.344 39.883C390.3 39.505 388.447 39.313 386.836 39.313ZM339.706 79.375C335.65 79.375 332.451 78.029 330.197 75.38C327.929 72.716 326.782 68.92 326.782 64.095C326.782 59.118 327.93 55.223 330.2 52.512C332.453 49.82 335.62 48.453 339.616 48.453C343.491 48.453 346.576 49.758 348.786 52.335C351.007 54.924 352.134 58.788 352.134 63.823C352.134 68.92 351.074 72.836 348.984 75.455C346.908 78.055 343.788 79.375 339.706 79.375ZM340.205 39.313C332.463 39.313 326.315 41.581 321.935 46.054C317.555 50.528 315.332 56.718 315.332 64.456C315.332 71.808 317.502 77.716 321.777 82.023C326.053 86.331 331.872 88.513 339.073 88.513C346.573 88.513 352.601 86.214 356.983 81.679C361.362 77.149 363.583 71.017 363.583 63.459C363.583 55.996 361.499 50.041 357.389 45.763C353.276 41.483 347.494 39.313 340.205 39.313ZM298.365 48.573V40.444H287.324V87.381H298.364V63.37C298.364 59.287 299.29 55.933 301.117 53.4C302.92 50.897 305.324 49.628 308.257 49.628C309.252 49.628 310.368 49.792 311.577 50.117C312.774 50.439 313.641 50.789 314.152 51.157L314.616 51.494V40.364L314.436 40.287C313.409 39.85 311.954 39.63 310.114 39.63C307.339 39.63 304.856 40.521 302.73 42.276C300.863 43.819 299.513 45.935 298.482 48.573H298.365ZM267.552 39.313C262.487 39.313 257.968 40.4 254.125 42.541C250.275 44.686 247.296 47.751 245.27 51.646C243.253 55.533 242.229 60.073 242.229 65.136C242.229 69.57 243.222 73.64 245.184 77.226C247.148 80.819 249.928 83.63 253.446 85.58C256.96 87.527 261.021 88.514 265.516 88.514C270.763 88.514 275.243 87.465 278.836 85.397L278.98 85.313V75.198L278.517 75.537C276.864 76.7347 275.044 77.6822 273.115 78.349C271.163 79.03 269.385 79.374 267.825 79.374C263.492 79.374 260.015 78.019 257.49 75.347C254.96 72.67 253.677 68.913 253.677 64.184C253.677 59.426 255.015 55.572 257.651 52.727C260.28 49.892 263.764 48.454 268.007 48.454C271.636 48.454 275.172 49.683 278.517 52.11L278.98 52.446V41.788L278.831 41.704C277.571 40.999 275.855 40.417 273.723 39.976C271.601 39.536 269.525 39.313 267.552 39.313ZM234.625 40.444H223.583V87.381H234.625V40.444ZM229.217 20.449C227.4 20.449 225.815 21.068 224.513 22.293C223.205 23.523 222.541 25.071 222.541 26.897C222.541 28.695 223.197 30.214 224.491 31.411C225.778 32.604 227.368 33.209 229.217 33.209C231.065 33.209 232.661 32.604 233.963 31.413C235.273 30.214 235.938 28.695 235.938 26.897C235.938 25.135 235.291 23.602 234.017 22.343C232.744 21.086 231.128 20.449 229.217 20.449ZM201.669 36.982V87.38H212.937V21.886H197.342L177.519 70.533L158.283 21.886H142.053V87.381H152.642V36.977H153.006L173.319 87.381H181.309L201.305 36.981L201.669 36.982Z" fill="#706D6E"/>
<path d="M51.939 51.939H0V0H51.939V51.939Z" fill="#F1511B"/>
<path d="M109.287 51.939H57.348V0H109.287V51.939Z" fill="#80CC28"/>
<path d="M51.938 109.307H0V57.368H51.938V109.307Z" fill="#00ADEF"/>
<path d="M109.287 109.307H57.348V57.368H109.287V109.307Z" fill="#FBBC09"/>
</g>
<defs>
<clipPath id="clip0_531_1117">
<rect width="512" height="110" fill="white"/>
</clipPath>
</defs>
</svg>
